<?xml version="1.0" standalone="no"?><!DOCTYPE svg PUBLIC "-//W3C//DTD SVG 1.1//EN" "http://www.w3.org/Graphics/SVG/1.1/DTD/svg11.dtd"><svg t="1603872068495" class="icon" viewBox="0 0 1024 1024" version="1.1" xmlns="http://www.w3.org/2000/svg" p-id="3517" xmlns:xlink="http://www.w3.org/1999/xlink" width="200" height="200"><defs><style type="text/css"></style></defs><path d="M699.581748 909.451104c-94.167706 0-170.545234-75.930343-170.545234-169.569 0-93.637634 76.377528-169.539324 170.545234-169.539324 94.169753 0 170.519652 75.901691 170.519652 169.539324C870.101399 833.519738 793.752524 909.451104 699.581748 909.451104zM699.581748 612.727099c-70.63985 0-127.910205 56.933687-127.910205 127.155005 0 70.249971 57.270355 127.181611 127.910205 127.181611 70.614268 0 127.884622-56.93164 127.884622-127.181611C827.46637 669.659763 770.196015 612.727099 699.581748 612.727099zM776.296967 765.31331l-51.141774 0 0 50.887994c0 14.045901-11.471262 25.432229-25.573445 25.432229-14.128789 0-25.570375-11.386328-25.570375-25.432229L674.011372 765.31331l-51.170426 0c-14.127765 0-25.595958-11.386328-25.595958-25.432229 0-14.043854 11.468193-25.431206 25.595958-25.431206l51.170426 0 0-50.861388c0-14.044878 11.44261-25.431206 25.570375-25.431206 14.102183 0 25.573445 11.386328 25.573445 25.431206l0 50.861388 51.141774 0c14.156418 0 25.599028 11.387351 25.599028 25.431206C801.895995 753.926982 790.453385 765.31331 776.296967 765.31331zM477.895763 511.0033c-116.075669 0-210.16151-92.994997-210.16151-207.728088 0-114.704438 94.085842-207.698412 210.16151-207.698412 116.047016 0 210.16151 92.993974 210.16151 207.698412C688.057273 418.009326 593.942779 511.0033 477.895763 511.0033zM477.895763 153.7405c-83.567277 0-151.299915 66.948785-151.299915 149.535735 0 82.587973 67.731614 149.564387 151.299915 149.564387 83.565231 0 151.297868-66.976414 151.297868-149.564387C629.192607 220.688261 561.460993 153.7405 477.895763 153.7405zM329.92671 567.880705c9.036817 0 18.10024 2.294252 26.269293 6.882757 36.81651 20.674878 78.896908 31.585369 121.69976 31.585369 27.752064 0 55.05899-5.062296 80.96501-13.931291-20.366863 19.24839-36.901445 42.49586-47.952128 68.625984-10.881838 1.174756-21.823028 2.15406-33.012881 2.15406-53.967122 0-104.493889-14.072507-147.969053-38.46915-73.496921 46.49801-122.035404 152.026462-122.035404 247.232824l336.198042 0c20.031219 23.276123 45.153386 41.99137 73.744561 54.41533L207.891306 926.376589c-29.823236 0-53.995775-26.801413-53.995775-56.850799 0-114.536616 61.9704-239.312434 147.297764-293.308209C309.977355 570.678424 319.937195 567.880705 329.92671 567.880705z" p-id="3518"></path></svg>